<svg width="71" height="70" viewBox="0 0 71 70" fill="none" xmlns="http://www.w3.org/2000/svg">
<g opacity="0.5">
<path d="M40.5 17.6663L52.8438 30.01L30.5 52.3538L18.1562 40.01L40.5 17.6663ZM32.2578 55.9084L56.3984 31.7678C56.8932 31.273 57.1406 30.6871 57.1406 30.01C57.1406 29.3329 56.8932 28.747 56.3984 28.2522L42.2578 14.1116C41.7891 13.6428 41.2031 13.4084 40.5 13.4084C39.7969 13.4084 39.2109 13.6428 38.7422 14.1116L14.6016 38.2522C14.1068 38.747 13.8594 39.3329 13.8594 40.01C13.8594 40.6871 14.1068 41.273 14.6016 41.7678L28.7422 55.9084C29.2109 56.3772 29.7969 56.6116 30.5 56.6116C31.2031 56.6116 31.7891 56.3772 32.2578 55.9084ZM66.9844 31.0256L31.5547 66.4944C30.5911 67.4579 29.4128 67.9397 28.0195 67.9397C26.6263 67.9397 25.4479 67.4579 24.4844 66.4944L19.5625 61.5725C21.0208 60.1142 21.75 58.3433 21.75 56.26C21.75 54.1767 21.0208 52.4058 19.5625 50.9475C18.1042 49.4892 16.3333 48.76 14.25 48.76C12.1667 48.76 10.3958 49.4892 8.9375 50.9475L4.05469 46.0256C3.09115 45.0621 2.60938 43.8837 2.60938 42.4905C2.60938 41.0972 3.09115 39.9189 4.05469 38.9553L39.4844 3.5647C40.4479 2.60116 41.6263 2.11938 43.0195 2.11938C44.4128 2.11938 45.5911 2.60116 46.5547 3.5647L51.4375 8.44751C49.9792 9.90584 49.25 11.6767 49.25 13.76C49.25 15.8433 49.9792 17.6142 51.4375 19.0725C52.8958 20.5308 54.6667 21.26 56.75 21.26C58.8333 21.26 60.6042 20.5308 62.0625 19.0725L66.9844 23.9553C67.9479 24.9189 68.4297 26.0972 68.4297 27.4905C68.4297 28.8837 67.9479 30.0621 66.9844 31.0256Z" fill="white"/>
</g>
</svg>
